<svg width="30" height="30" viewBox="0 0 30 30" fill="none" xmlns="http://www.w3.org/2000/svg">
<rect width="30" height="30" rx="2" fill="white"/>
<path fill-rule="evenodd" clip-rule="evenodd" d="M7.66664 4C5.64161 4 4 5.64161 4 7.66664C4 9.69166 5.64161 11.3333 7.66664 11.3333H11.3333V4H7.66664ZM7.66673 9.50013C8.67929 9.50013 9.50013 8.67929 9.50013 7.66673C9.50013 6.65416 8.67929 5.83332 7.66673 5.83332C6.65416 5.83332 5.83332 6.65416 5.83332 7.66673C5.83332 8.67929 6.65416 9.50013 7.66673 9.50013Z" fill="#5500FF"/>
<path fill-rule="evenodd" clip-rule="evenodd" d="M18.6663 11.333H11.333V18.6663H18.6663V11.333ZM14.9995 16.8331C16.0122 16.8331 16.8331 16.0122 16.8331 14.9995C16.8331 13.9868 16.0122 13.1658 14.9995 13.1658C13.9868 13.1658 13.1658 13.9868 13.1658 14.9995C13.1658 16.0122 13.9868 16.8331 14.9995 16.8331Z" fill="#5500FF"/>
<path fill-rule="evenodd" clip-rule="evenodd" d="M18.6663 18.667H11.333V22.3336C11.333 24.3587 12.9746 26.0003 14.9996 26.0003C17.0247 26.0003 18.6663 24.3587 18.6663 22.3336V18.667ZM14.9997 24.1676C16.0125 24.1676 16.8336 23.3465 16.8336 22.3337C16.8336 21.3209 16.0125 20.4999 14.9997 20.4999C13.9869 20.4999 13.1659 21.3209 13.1659 22.3337C13.1659 23.3465 13.9869 24.1676 14.9997 24.1676Z" fill="#5500FF"/>
<path fill-rule="evenodd" clip-rule="evenodd" d="M22.3336 4H18.667V11.3333H22.3336C24.3587 11.3333 26.0003 9.69166 26.0003 7.66664C26.0003 5.64161 24.3587 4 22.3336 4ZM22.3333 9.50013C23.3458 9.50013 24.1667 8.67929 24.1667 7.66673C24.1667 6.65416 23.3458 5.83332 22.3333 5.83332C21.3207 5.83332 20.4999 6.65416 20.4999 7.66673C20.4999 8.67929 21.3207 9.50013 22.3333 9.50013Z" fill="#5500FF"/>
<path fill-rule="evenodd" clip-rule="evenodd" d="M18.6663 4H11.333V11.3333H18.6663V4ZM14.9996 9.86671C16.2147 9.86671 17.1996 8.88174 17.1996 7.66673C17.1996 6.45171 16.2147 5.46674 14.9996 5.46674C13.7846 5.46674 12.7997 6.45171 12.7997 7.66673C12.7997 8.88174 13.7846 9.86671 14.9996 9.86671Z" fill="#5500FF"/>
<path fill-rule="evenodd" clip-rule="evenodd" d="M14.9996 4C12.9746 4 11.333 5.64161 11.333 7.66664V11.3333H18.6663V7.66664C18.6663 5.64161 17.0247 4 14.9996 4ZM14.9995 9.50022C16.0122 9.50022 16.8331 8.67926 16.8331 7.66655C16.8331 6.65384 16.0122 5.83287 14.9995 5.83287C13.9868 5.83287 13.1658 6.65384 13.1658 7.66655C13.1658 8.67926 13.9868 9.50022 14.9995 9.50022Z" fill="#5500FF"/>
</svg>
